<svg width="151" height="181" viewBox="0 0 151 181" fill="none" xmlns="http://www.w3.org/2000/svg">
<path d="M117.492 59.2776C117.156 54.0055 114.937 48.9743 111.827 44.7107C110.264 42.5593 108.421 40.4695 107.861 37.8699C107.121 34.4074 108.763 30.4352 106.869 27.4377C105.541 25.3255 102.841 24.4515 101.328 22.4682C99.6976 20.3392 99.7368 17.3978 98.7732 14.899C97.8095 12.4002 94.56 10.2488 92.571 12.0528C92.1901 7.341 92.952 4.69654 88.9349 2.21457C84.9178 -0.267409 76.9957 0.931556 75.4549 5.39687C72.0373 2.53952 65.7904 -0.205781 61.8629 1.88961C59.4425 3.18943 57.5881 5.31844 55.3358 6.89839C51.8453 9.34115 47.5817 10.3552 43.6767 12.0752C39.7716 13.7953 35.9114 16.647 35.0038 20.8154C34.337 23.8912 35.4128 27.124 34.8469 30.2166C34.3651 32.8219 32.7739 35.0573 31.5525 37.4049C30.5271 39.3721 29.7445 41.4566 29.2218 43.6126C28.2021 47.8146 28.768 53.2324 32.6899 55.0532C31.2754 55.4569 30.0481 56.3455 29.2231 57.5634C28.3981 58.7812 28.028 60.2505 28.1777 61.7138C28.3273 63.1772 28.9872 64.5411 30.0417 65.5667C31.0962 66.5923 32.4779 67.2141 33.9449 67.323L27.3393 79.2959C26.7286 80.4164 26.0955 81.6266 26.3028 82.876C26.5942 84.6184 28.4823 85.7166 30.2247 85.7334C31.9671 85.7502 33.6479 84.9602 35.2279 84.187C35.7848 85.2265 36.6197 86.0905 37.6395 86.6828C38.6592 87.275 39.8235 87.572 41.0023 87.5406C42.1811 87.5092 43.3279 87.1506 44.3147 86.505C45.3014 85.8594 46.0892 84.9521 46.5901 83.8845C47.2566 85.1137 48.2411 86.1414 49.4408 86.8599C50.6404 87.5784 52.011 87.9613 53.4093 87.9688C54.8077 87.9762 56.1823 87.6079 57.3895 86.9022C58.5967 86.1965 59.5922 85.1794 60.2717 83.9573L87.0973 77.7944L107.323 75.9287C110.259 75.6542 113.531 75.2004 115.329 72.8697C116.494 71.3513 116.763 69.3456 117.01 67.4463C117.418 64.7437 117.579 62.0095 117.492 59.2776Z" fill="#263238"/>
<path d="M70.6535 133.49L57.7002 99.1234L64.4233 92.4002L64.16 90.2376C63.4261 84.831 63.1571 82.6124 63.1571 82.6628C63.1571 82.7132 51.5036 82.1754 47.3016 67.5693C45.2118 60.2858 44.0857 48.1056 43.4862 38.0993C42.926 29.0902 47.5201 17.3695 56.5404 17.2406L85.2204 20.8431C86.5424 20.8193 87.8252 21.2925 88.815 22.1692C89.8048 23.0459 90.4294 24.2622 90.5653 25.5774L95.5349 85.8675L99.3391 89.1227L103.922 130.879L70.6535 133.49Z" fill="#B47266"/>
<path d="M50.0805 49.7198C50.1411 50.2149 50.3918 50.6671 50.7797 50.9808C51.1676 51.2944 51.6623 51.445 52.1591 51.4006C52.4045 51.3906 52.6454 51.3316 52.8676 51.227C53.0898 51.1224 53.2888 50.9744 53.4528 50.7916C53.6168 50.6088 53.7425 50.3949 53.8225 50.1627C53.9024 49.9305 53.935 49.6846 53.9184 49.4396C53.8565 48.9451 53.6054 48.4937 53.2178 48.1803C52.8302 47.8669 52.3363 47.7159 51.8398 47.7588C51.5946 47.7695 51.3541 47.829 51.1323 47.9339C50.9104 48.0387 50.7117 48.1868 50.5479 48.3694C50.384 48.5521 50.2583 48.7656 50.178 48.9975C50.0978 49.2293 50.0646 49.4749 50.0805 49.7198Z" fill="#263238"/>
<path d="M69.1858 48.0944C69.2463 48.5896 69.4971 49.0418 69.885 49.3554C70.2728 49.6691 70.7675 49.8196 71.2644 49.7752C71.5098 49.7646 71.7506 49.7049 71.9725 49.5996C72.1945 49.4944 72.393 49.3457 72.5565 49.1623C72.72 48.979 72.8451 48.7647 72.9243 48.5322C73.0036 48.2997 73.0355 48.0537 73.018 47.8087C72.9601 47.3134 72.711 46.8604 72.3236 46.5463C71.9363 46.2323 71.4416 46.0821 70.945 46.1279C70.6991 46.1378 70.4577 46.1969 70.2351 46.3019C70.0125 46.4068 69.8133 46.5554 69.6492 46.7388C69.4851 46.9222 69.3596 47.1367 69.28 47.3696C69.2003 47.6025 69.1683 47.8489 69.1858 48.0944Z" fill="#263238"/>
<path d="M46.9206 45.0808C47.1896 45.2993 48.5006 44.05 50.5624 43.8034C52.6241 43.5569 54.2489 44.3973 54.445 44.1172C54.5402 43.9939 54.2433 43.5569 53.5262 43.1759C52.5597 42.6684 51.4597 42.4727 50.3775 42.6157C49.3076 42.7417 48.3063 43.207 47.5201 43.9435C46.9486 44.5094 46.7918 44.9688 46.9206 45.0808Z" fill="#263238"/>
<path d="M67.3537 43.3998C67.6227 43.6183 68.9393 42.3689 70.9955 42.1224C73.0516 41.8759 74.682 42.7163 74.8781 42.4362C74.9734 42.3129 74.6764 41.8759 73.9593 41.4949C72.9928 40.9873 71.8928 40.7916 70.8106 40.9346C69.7416 41.0637 68.7412 41.5286 67.9532 42.2625C67.3818 42.8283 67.2249 43.2878 67.3537 43.3998Z" fill="#263238"/>
<path d="M61.622 58.1403C61.622 58.0226 60.3166 57.9554 58.21 57.9498C57.6497 57.9498 57.1679 57.9162 57.0334 57.5688C56.9251 57.0305 56.9818 56.472 57.1959 55.9664L58.2548 51.7813C59.7115 45.82 60.692 40.9513 60.4511 40.8897C60.2101 40.8281 58.8375 45.6183 57.3808 51.5796C57.039 53.0475 56.7085 54.4425 56.3891 55.7815C56.2659 56.4034 56.0082 57.1206 56.3891 57.8769C56.4885 58.0524 56.6263 58.203 56.7922 58.3176C56.9582 58.4321 57.1479 58.5075 57.3472 58.5381C57.6485 58.5769 57.9535 58.5769 58.2548 58.5381C60.311 58.4148 61.622 58.2579 61.622 58.1403Z" fill="#263238"/>
<path d="M63.1741 82.6461C70.204 81.8881 76.8856 79.1941 82.4752 74.864C82.4752 74.864 78.7382 85.8676 63.6503 86.3102L63.1741 82.6461Z" fill="#89544C"/>
<path d="M62.3168 63.4237C63.4374 62.1519 66.5356 60.1294 67.5553 59.8773C68.575 59.6251 68.5134 60.8745 69.2361 61.7597C69.6024 62.2435 69.8291 62.8184 69.8913 63.422C69.9535 64.0256 69.849 64.6347 69.5891 65.183C68.956 66.4324 67.6225 67.5137 66.4068 67.3792C65.191 67.2447 64.048 66.029 63.0452 65.3286C62.7435 65.1548 62.4864 64.9131 62.2944 64.6227C62.1962 64.4609 62.1406 64.2769 62.1328 64.0878C62.125 63.8987 62.1651 63.7107 62.2496 63.5414" fill="#89544C"/>
<path d="M65.1574 35.8249C65.4264 36.3572 67.4489 35.8249 69.8973 35.8249C72.3456 35.8249 74.3794 36.2395 74.6315 35.696C74.7492 35.4383 74.3458 34.9565 73.511 34.5139C72.3849 33.9654 71.1439 33.6945 69.8917 33.7239C68.6382 33.7282 67.4036 34.0296 66.2892 34.6035C65.4264 35.0742 65.0342 35.5672 65.1574 35.8249Z" fill="#263238"/>
<path d="M46.635 37.8752C47.0552 38.2954 48.411 37.6398 50.1142 37.4045C51.8175 37.1692 53.2965 37.3317 53.5655 36.805C53.6831 36.5473 53.3974 36.1047 52.7139 35.7405C51.7994 35.3122 50.7781 35.1661 49.7802 35.3208C48.7823 35.4754 47.8531 35.9239 47.1112 36.609C46.5846 37.1636 46.4501 37.6847 46.635 37.8752Z" fill="#263238"/>
<path d="M88.9351 44.2007C89.1255 44.0775 96.874 40.4581 97.8993 48.7781C98.9246 57.098 90.3301 56.3921 90.2853 56.1736C90.2405 55.9551 88.9351 44.2007 88.9351 44.2007Z" fill="#B47266"/>
<path d="M92.4366 52.6998C92.4702 52.6662 92.5934 52.7838 92.8512 52.8623C93.2135 52.9697 93.6035 52.9315 93.9381 52.7558C94.7785 52.3244 95.35 50.8397 95.2043 49.3382C95.1418 48.6213 94.9177 47.9279 94.5488 47.31C94.4401 47.0597 94.2721 46.8397 94.0593 46.6688C93.8465 46.498 93.5953 46.3816 93.3274 46.3296C93.1546 46.3072 92.9794 46.3452 92.8314 46.437C92.6834 46.5289 92.5717 46.6691 92.515 46.8338C92.4366 47.0803 92.515 47.2372 92.4646 47.2596C92.4142 47.282 92.2685 47.1419 92.2965 46.789C92.314 46.5766 92.4075 46.3777 92.5598 46.2287C92.6616 46.1283 92.7824 46.0493 92.9152 45.9964C93.048 45.9435 93.1901 45.9177 93.333 45.9206C93.6865 45.9447 94.0276 46.0609 94.3224 46.2574C94.6172 46.4539 94.8555 46.7241 95.0138 47.0411C95.4554 47.7124 95.7248 48.4821 95.7982 49.2822C95.9494 50.963 95.2827 52.6438 94.1174 53.1312C93.9013 53.2235 93.6672 53.2659 93.4324 53.2552C93.1977 53.2445 92.9684 53.1811 92.7615 53.0696C92.487 52.8959 92.4366 52.7166 92.4366 52.6998Z" fill="#89544C"/>
<path d="M96.3138 55.0867C96.3138 55.1203 96.5435 55.1596 96.9021 55.3613C97.4007 55.6561 97.7929 56.1013 98.0226 56.6331C98.2019 57.0115 98.2777 57.4308 98.2422 57.848C98.2068 58.2653 98.0614 58.6658 97.8209 59.0086C97.5274 59.4277 97.1247 59.7584 96.6566 59.9648C96.1884 60.1712 95.6726 60.2455 95.1653 60.1795C94.7048 60.0898 94.2716 59.8938 93.9002 59.6071C93.5289 59.3204 93.2295 58.951 93.026 58.5283C92.8226 58.1056 92.7206 57.6412 92.7282 57.1721C92.7358 56.703 92.8528 56.2422 93.0699 55.8263C93.3355 55.3044 93.7192 54.8517 94.1904 54.5041C94.3861 54.395 94.5734 54.2714 94.7507 54.1343C94.5278 54.1697 94.3154 54.2539 94.1288 54.3808C93.5984 54.7033 93.1619 55.1592 92.8626 55.703C92.6282 56.1085 92.4852 56.5602 92.4436 57.0266C92.402 57.4931 92.4628 57.963 92.6217 58.4035C92.8163 58.9497 93.1504 59.4355 93.5906 59.8129C94.0309 60.1903 94.5621 60.4461 95.1317 60.5549C95.7091 60.6326 96.2969 60.5473 96.8285 60.3088C97.3601 60.0702 97.8144 59.6878 98.1403 59.2047C98.4288 58.7835 98.5867 58.2865 98.5941 57.776C98.5932 57.3379 98.4896 56.9062 98.2916 56.5154C98.0198 55.9483 97.5579 55.4943 96.9861 55.2324C96.7811 55.1192 96.5473 55.0686 96.3138 55.0867Z" fill="#455A64"/>
<path d="M65.5439 67.1322C65.5439 67.1042 65.6336 67.1322 65.7456 67.1714C65.8922 67.2542 66.046 67.3236 66.205 67.3787C66.4998 67.4289 66.8018 67.4164 67.0914 67.342C67.381 67.2677 67.6517 67.1332 67.8858 66.9473C68.2554 66.7533 68.5904 66.4996 68.8775 66.1966C69.2062 65.8564 69.4768 65.4646 69.6787 65.0368C69.8831 64.5919 69.94 64.0933 69.8411 63.6137C69.7029 63.0809 69.442 62.5878 69.0792 62.1739C68.3396 61.2494 67.3984 60.4651 66.5244 60.5323C66.0719 60.5978 65.6406 60.7665 65.2638 61.0253C64.866 61.2774 64.485 61.5296 64.1432 61.7593C62.793 62.6725 62.2608 63.5353 62.1487 63.4793C62.0366 63.4233 62.1487 63.1879 62.412 62.7733C62.7797 62.2045 63.2355 61.6976 63.7623 61.2718C64.0872 60.9973 64.4458 60.7116 64.8828 60.4258C65.3416 60.0598 65.8882 59.8203 66.4683 59.7311C67.144 59.6902 67.8125 59.8885 68.3564 60.2914C68.8952 60.6705 69.3748 61.1274 69.7795 61.6472C70.2277 62.1672 70.543 62.7882 70.6984 63.4569C70.8209 64.1133 70.7265 64.7918 70.4294 65.3898C70.2993 65.6553 70.1395 65.9053 69.9532 66.1349C69.7798 66.3451 69.5926 66.5435 69.3929 66.7288C69.035 67.0626 68.6192 67.3285 68.1659 67.5132C67.8134 67.6904 67.4353 67.8113 67.0454 67.8718C66.788 67.9144 66.5238 67.8846 66.2824 67.7856C66.041 67.6867 65.8318 67.5225 65.6784 67.3115C65.5831 67.2163 65.5439 67.1546 65.5439 67.1322Z" fill="#263238"/>
<path d="M96.1344 70.1247C96.1733 70.1175 96.2132 70.1175 96.2521 70.1247L96.577 70.1583C97.0047 70.1862 97.434 70.1768 97.86 70.1303C99.474 69.9388 100.996 69.2763 102.236 68.2254C104.107 66.5593 105.418 64.356 105.989 61.9168C106.393 60.4463 106.581 58.9254 106.55 57.401C106.525 55.7212 106.081 54.0743 105.256 52.6108L105.222 52.5547L105.25 52.4931C105.835 51.2266 106.159 49.8554 106.204 48.461C106.249 47.0667 106.013 45.6775 105.51 44.3762C105.007 43.0748 104.248 41.8878 103.277 40.8856C102.307 39.8835 101.145 39.0867 99.8602 38.5425L99.6417 38.4472L99.8266 38.2904C100.203 37.9857 100.508 37.6035 100.723 37.1698C101.23 36.0772 101.297 34.8309 100.908 33.6906C100.518 32.5741 99.9101 31.5459 99.1206 30.6652C98.3959 29.7749 97.5126 29.0264 96.5154 28.4577C95.5722 27.8856 94.4494 27.6858 93.3667 27.8974L93.0417 27.9759L93.2154 27.6901C93.7508 26.8248 94.0152 25.8193 93.9749 24.8025C93.9346 23.7858 93.5913 22.8043 92.9891 21.9841C92.3869 21.1639 91.5533 20.5425 90.5953 20.1995C89.6373 19.8565 88.5987 19.8077 87.6128 20.0593L87.4223 20.1098L87.4783 19.9193C87.7732 18.8839 87.8151 17.7929 87.6006 16.738C87.3862 15.6831 86.9215 14.6952 86.2457 13.8572C85.9482 13.509 85.6074 13.2002 85.2317 12.9384C84.8851 12.7019 84.5082 12.5134 84.1111 12.3781C83.4044 12.1342 82.6536 12.0444 81.9093 12.1148C81.3103 12.1688 80.725 12.3241 80.178 12.5742C79.7821 12.7632 79.4144 13.0064 79.0855 13.2969C78.8239 13.5525 78.5822 13.8279 78.3628 14.1205C78.4051 14.0384 78.4538 13.9597 78.5085 13.8852C78.6591 13.6531 78.8379 13.4404 79.0407 13.2521C79.3737 12.9416 79.7514 12.6829 80.1612 12.4845C80.7133 12.2213 81.3065 12.0545 81.9149 11.9915C82.6797 11.9047 83.4544 11.9869 84.1839 12.2324C84.6 12.3642 84.9959 12.5527 85.3605 12.7927C85.7511 13.0614 86.1068 13.3776 86.4194 13.7339C87.1221 14.5931 87.608 15.6085 87.8362 16.6947C88.0643 17.7809 88.0281 18.906 87.7304 19.9753L87.5904 19.8352C88.6227 19.5757 89.7089 19.6296 90.7104 19.9901C91.7118 20.3507 92.5832 21.0014 93.2133 21.8593C93.8433 22.7172 94.2035 23.7434 94.2478 24.8068C94.2921 25.8703 94.0185 26.9229 93.4619 27.8302L93.3107 27.6229C94.462 27.3891 95.659 27.5887 96.6723 28.1832C97.7017 28.7685 98.6136 29.5398 99.3615 30.4579C100.177 31.3657 100.803 32.4265 101.205 33.5785C101.621 34.7904 101.549 36.1169 101.003 37.2763C100.775 37.7518 100.444 38.1708 100.034 38.5033L100 38.2568C101.321 38.8131 102.516 39.6305 103.513 40.6599C104.511 41.6893 105.29 42.9094 105.804 44.2472C106.318 45.585 106.557 47.0129 106.506 48.4452C106.455 49.8776 106.116 51.2849 105.508 52.5827V52.4651C106.355 53.965 106.806 55.656 106.819 57.3786C106.844 58.9255 106.642 60.4678 106.219 61.956C105.628 64.4328 104.276 66.6624 102.353 68.3318C101.081 69.3899 99.5188 70.0401 97.8712 70.1975C97.4408 70.2389 97.0074 70.2389 96.577 70.1975L96.2465 70.1415L96.1344 70.1247Z" fill="#455A64"/>
<path d="M93.3612 40.1782C93.1427 34.5363 92.9018 28.7768 90.8792 23.5047C90.4918 22.283 89.7996 21.1801 88.8679 20.2999C88.035 19.6772 87.0806 19.2363 86.0666 19.0057C84.5034 18.5631 84.0776 17.5042 82.4584 17.3866C76.2955 12.1481 67.4489 10.3552 59.6388 12.4618C51.8287 14.5684 45.1784 20.4232 41.8056 27.7795C38.486 35.2666 38.2445 43.759 41.1332 51.4227C40.6122 45.4279 44.4108 39.8084 49.0666 35.993C53.7224 32.1776 59.2915 29.6452 64.1938 26.1883C64.1501 27.0226 63.9273 27.8377 63.5406 28.5782C63.1539 29.3187 62.6123 29.9673 61.9527 30.48C65.841 29.4379 69.7964 28.3734 73.2981 26.4348C74.0873 26.0047 74.8489 25.5257 75.5784 25.0006C75.6568 25.916 75.9098 26.8079 76.3235 27.6282C77.6402 30.211 80.4639 31.5893 82.6153 33.5334C82.8952 33.7529 83.1197 34.035 83.2708 34.357C83.4057 34.8889 83.3685 35.4499 83.1644 35.9594C82.6142 37.6357 82.4233 39.4092 82.6041 41.1642C82.8674 42.9011 83.8423 44.6099 85.4054 45.3662C84.8228 46.2831 84.5409 47.3589 84.5992 48.4437C84.6574 49.5284 85.0529 50.5679 85.7304 51.4171C85.9126 51.6763 86.1805 51.8628 86.4868 51.9437C86.9966 52.0166 87.4224 51.574 87.7137 51.1482C88.5737 49.9083 89.1636 48.5015 89.445 47.019C89.4874 46.3873 89.6795 45.7747 90.0052 45.2318C90.5655 44.5202 91.6076 44.3745 92.2967 43.7751C93.3836 42.9291 93.4116 41.4612 93.3612 40.1782Z" fill="#263238"/>
<path d="M49.5427 27.1411C49.5682 26.9981 49.6057 26.8576 49.6548 26.7209C49.7994 26.3278 49.9873 25.9519 50.215 25.6004C51.0332 24.2858 52.3214 23.3322 53.8176 22.9335L53.7335 23.0344C53.8206 22.2243 53.9876 21.4248 54.2321 20.6476C54.5174 19.7779 54.893 18.9404 55.3527 18.1488C56.4196 16.3698 57.9116 14.8836 59.6947 13.8236C60.4926 13.3379 61.3518 12.9611 62.2495 12.7031C62.6937 12.5887 63.1548 12.5545 63.611 12.6022C64.0721 12.6502 64.4982 12.8703 64.8044 13.2185H64.5859C65.5951 11.9157 66.8911 10.8631 68.3733 10.1426C69.6955 9.48712 71.0737 9.2126 72.1438 9.53195C72.5622 9.64623 72.9474 9.85818 73.2679 10.1504C73.5883 10.4426 73.8348 10.8067 73.9871 11.2127C74.0626 11.4287 74.0986 11.6564 74.0936 11.8851C74.0966 11.963 74.0852 12.0409 74.0599 12.1148C74.0589 11.8178 74.0038 11.5236 73.8975 11.2464C73.7349 10.8707 73.4881 10.5374 73.1763 10.2722C72.8645 10.007 72.4959 9.81702 72.099 9.71684C71.0793 9.4367 69.7627 9.71683 68.4797 10.3723C67.0413 11.0921 65.7848 12.1284 64.8044 13.4034L64.6979 13.5378L64.5915 13.409C64.0872 12.8039 63.1404 12.7871 62.3168 12.9944C61.4478 13.2429 60.6152 13.6046 59.8404 14.0701C58.1008 15.1095 56.6411 16.5576 55.588 18.2889C55.1301 19.0598 54.7546 19.8767 54.4675 20.7261C54.2191 21.4844 54.0447 22.2649 53.9464 23.0568V23.1184H53.8736C52.4176 23.4885 51.1502 24.3846 50.3159 25.634C50.015 26.113 49.7563 26.6173 49.5427 27.1411Z" fill="#455A64"/>
<path d="M39.43 77.2563L39.2899 77.4692L38.8417 78.1023L38.8081 78.1471V78.0911C38.2114 76.2837 37.9106 74.3918 37.9172 72.4885C37.9168 69.1096 38.8347 65.7942 40.5729 62.8967L40.6233 63.0536C39.5262 62.5353 38.5971 61.7187 37.9422 60.6972C37.2873 59.6757 36.933 58.4906 36.92 57.2773C36.9036 56.6172 37.0022 55.9594 37.2113 55.3331C37.3284 55.0356 37.4184 54.728 37.4802 54.4143C37.4994 54.2661 37.4869 54.1155 37.4434 53.9726C37.3999 53.8296 37.3266 53.6975 37.2281 53.5851C37.0048 53.3411 36.7632 53.1144 36.5054 52.9072C36.2451 52.6768 35.9982 52.4318 35.7658 52.1732C35.2952 51.6451 34.882 51.0686 34.5332 50.4532C33.6065 48.8009 33.1936 46.9097 33.3473 45.0215C33.501 43.1332 34.2143 41.3337 35.396 39.853C35.6399 39.5428 35.9038 39.249 36.186 38.9734C36.4662 38.7044 36.7463 38.4411 36.7463 38.1106C36.6878 37.739 36.5843 37.3759 36.4381 37.0292C36.3062 36.6501 36.1995 36.2627 36.1188 35.8695C35.9468 35.0763 35.8641 34.2663 35.8723 33.4548C35.8685 31.7422 36.2374 30.0494 36.9533 28.4937C37.6692 26.938 38.7151 25.5567 40.0182 24.4457C40.6457 23.9134 41.3517 23.4932 41.6598 22.7649C41.81 22.4034 41.9245 22.0281 42.0016 21.6444C42.1024 21.2578 42.2313 20.8768 42.3433 20.4958C42.8643 19.0286 43.6611 17.6746 44.6909 16.5067C46.5909 14.3221 49.1453 12.809 51.9743 12.1927C53.2484 11.9389 54.5529 11.8747 55.8457 12.0022C56.1331 12.0268 56.4217 11.9726 56.6805 11.8453C56.9162 11.6818 57.134 11.494 57.3304 11.285L57.9804 10.6743L58.6583 10.1141C59.5266 9.46067 60.4664 8.90807 61.4596 8.46691C62.3492 8.08233 63.2743 7.78584 64.2217 7.58169C65.7363 7.24485 67.296 7.15967 68.8383 7.32957C69.8158 7.4443 70.7777 7.66599 71.7069 7.99068L72.4128 8.27081L72.6537 8.37726L72.4016 8.29883L71.6901 8.04671C70.7603 7.76615 69.8051 7.57848 68.8383 7.48644C67.3083 7.33953 65.7647 7.43979 64.2665 7.78338C63.3344 7.99547 62.4246 8.29562 61.5492 8.6798C60.5722 9.12273 59.6476 9.67333 58.7927 10.3214L58.1316 10.8817L57.4929 11.4867C57.2862 11.717 57.053 11.922 56.7982 12.0974C56.5065 12.248 56.1785 12.314 55.8513 12.2879C55.532 12.2879 55.2238 12.2431 54.9101 12.2431C54.5967 12.2235 54.2823 12.2235 53.9688 12.2431C53.3192 12.2762 52.6731 12.3586 52.0359 12.4896C49.2688 13.1096 46.7732 14.6 44.915 16.742C43.9085 17.8906 43.1325 19.2221 42.6291 20.6639C42.5226 21.0337 42.3938 21.4034 42.2985 21.7844C42.2159 22.1833 42.0958 22.5734 41.9399 22.9498C41.587 23.7566 40.8194 24.2048 40.2199 24.7202C38.9524 25.8058 37.9353 27.1534 37.2389 28.67C36.5425 30.1867 36.1833 31.8363 36.186 33.5052C36.1787 34.2961 36.2595 35.0853 36.4269 35.8583C36.507 36.2382 36.6118 36.6125 36.7407 36.9788C36.9012 37.3563 37.0087 37.7541 37.06 38.161C37.0241 38.3727 36.9467 38.5752 36.8323 38.7569C36.7179 38.9387 36.5687 39.096 36.3933 39.2199C36.1214 39.4889 35.8652 39.7732 35.6258 40.0715C34.2626 41.7856 33.5497 43.9267 33.6133 46.1158C33.6768 48.305 34.5128 50.4011 35.9731 52.0332C36.196 52.2859 36.4336 52.5254 36.6847 52.7503C36.9551 52.9652 37.2063 53.2033 37.4354 53.4618C37.556 53.6014 37.6458 53.7649 37.6989 53.9416C37.752 54.1183 37.7672 54.3042 37.7436 54.4871C37.681 54.819 37.5853 55.1437 37.4578 55.4564C37.259 56.0541 37.1624 56.681 37.1721 57.3109C37.178 58.4827 37.513 59.6293 38.1391 60.62C38.7652 61.6106 39.657 62.4053 40.713 62.9135L40.825 62.9639L40.7634 63.0704C39.8017 64.6333 39.0838 66.3336 38.6344 68.1128C37.7882 71.4222 37.8638 74.9 38.8529 78.1696H38.8025L39.2675 77.5533C39.3149 77.4507 39.3692 77.3515 39.43 77.2563Z" fill="#455A64"/>
<path d="M89.3777 3.24563C88.4986 3.1335 87.6138 3.07177 86.7276 3.06074C85.7768 3.07642 84.8412 3.30218 83.9879 3.72186C82.9444 4.22888 82.1402 5.12353 81.7468 6.21504C81.6852 6.41262 81.6402 6.61502 81.6124 6.82013V6.95459H81.4835C80.3935 6.91216 79.3079 7.11513 78.3068 7.54847C77.5019 7.90638 76.8074 8.47318 76.2955 9.19005C75.9506 9.67024 75.7067 10.2153 75.5783 10.7924C75.4943 11.2014 75.4887 11.4367 75.4663 11.4367C75.4438 11.4367 75.4663 11.3807 75.4663 11.2686C75.4612 11.1038 75.4706 10.9388 75.4943 10.7756C75.5866 10.1731 75.8125 9.5988 76.1554 9.0948C76.6684 8.32915 77.3815 7.71877 78.2172 7.32997C79.2514 6.85885 80.3815 6.63628 81.5171 6.68006L81.3659 6.80892C81.3935 6.5863 81.4423 6.36681 81.5115 6.15341C81.9182 4.99712 82.7635 4.04723 83.8647 3.50896C84.7589 3.0849 85.738 2.87029 86.7276 2.88146C87.3845 2.88343 88.0395 2.951 88.6829 3.08315C88.9203 3.10859 89.1536 3.16316 89.3777 3.24563Z" fill="#455A64"/>
<path d="M66.2275 127.585L107.911 126.157L111.777 183.08L75.3038 183.59L66.2275 127.585Z" fill="#E0E0E0"/>
<path d="M98.6668 85.3078C99.2271 84.5962 130.316 105.685 131.723 108.206C133.129 110.727 140.62 183.595 140.62 183.595H100.006C100.006 183.595 96.2745 123.58 96.4706 118.044C96.6667 112.509 98.6668 85.3078 98.6668 85.3078Z" fill="#FF8080"/>
<path d="M4.92327 183.914C4.92327 183.914 0.340295 174.485 0.850136 169.908C1.35998 165.33 4.92327 156.147 4.92327 156.147L14.0948 139.844C14.0948 139.844 15.9325 126.257 16.9466 123.708C17.9606 121.159 23.3336 103.925 29.687 99.8744C36.0404 95.8237 55.3584 93.0448 55.3584 93.0448L63.9136 86.6913C63.9136 86.6913 72.4241 111.819 73.6959 118.699C74.9677 125.579 82.0999 183.914 82.0999 183.914H4.92327Z" fill="#FF8080"/>
<path d="M76.4412 140.085C76.4039 140.048 76.3718 140.007 76.3459 139.961L76.0826 139.597L75.1078 138.163L71.5669 132.874C70.0766 130.633 68.3117 127.961 66.3452 125.03L63.2749 120.38C62.2216 118.772 61.0787 117.019 60.6921 114.957C60.4875 113.718 60.5583 112.45 60.8994 111.242C61.2135 110.096 61.6066 108.973 62.076 107.881L62.2497 108.066L56.647 110.015L56.4901 110.066V109.898C56.1147 105.018 55.801 100.905 55.5769 97.9864C55.4761 96.5521 55.3976 95.4147 55.3416 94.6248C55.3416 94.2494 55.3024 93.958 55.2912 93.7339C55.2825 93.6314 55.2825 93.5283 55.2912 93.4258C55.3146 93.5252 55.3296 93.6264 55.336 93.7283C55.336 93.9524 55.392 94.2438 55.4312 94.6191C55.5041 95.4203 55.6049 96.5577 55.7394 97.9807C55.9859 100.894 56.3389 105.006 56.7535 109.886L56.5798 109.774L62.1824 107.802L62.4738 107.701L62.3617 107.993C61.8984 109.072 61.5108 110.182 61.202 111.315C60.8717 112.483 60.8028 113.709 61.0003 114.906C61.37 116.901 62.4906 118.615 63.5327 120.223C64.5748 121.831 65.6169 123.394 66.5917 124.885L71.763 132.784L75.2254 138.129L76.1555 139.592L76.3908 139.973C76.4188 140.034 76.4468 140.079 76.4412 140.085Z" fill="#263238"/>
<path d="M47.1393 182.687C47.1112 182.633 47.0923 182.574 47.0832 182.514L46.9488 181.998C46.8367 181.522 46.6798 180.878 46.4725 180.004C46.0748 178.256 45.5033 175.751 44.7917 172.664C43.4247 166.44 41.5422 157.873 39.458 148.41L34.1691 124.14C33.4856 121.047 32.9365 118.537 32.5499 116.789C32.3669 115.934 32.2213 115.267 32.1129 114.789C32.0681 114.57 32.0345 114.397 32.0065 114.268C31.9975 114.206 31.9975 114.144 32.0065 114.083C32.0065 114.083 32.0065 114.144 32.0569 114.256C32.1073 114.369 32.1409 114.559 32.1914 114.772C32.309 115.248 32.4771 115.892 32.6844 116.761C33.099 118.492 33.6873 120.996 34.3652 124.095C35.7771 130.291 37.6708 138.869 39.7325 148.349C41.7943 157.828 43.6544 166.395 44.9822 172.619C45.6433 175.718 46.1868 178.222 46.5622 179.981C46.7415 180.838 46.8871 181.505 46.988 181.981C47.0272 182.2 47.0608 182.374 47.0888 182.508C47.1168 182.642 47.1393 182.687 47.1393 182.687Z" fill="#263238"/>
<g opacity="0.3">
<path opacity="0.3" d="M43.4526 183.079C47.5726 180.637 52.2013 179.18 56.9774 178.821C60.6472 178.552 64.4346 178.928 67.9362 177.79C71.8581 176.519 74.9452 173.516 77.8753 170.602C78.7383 169.868 79.4159 168.941 79.8531 167.896C80.2061 166.826 79.9091 165.453 78.9062 164.938C78.1331 164.54 77.1974 164.747 76.357 164.983C63.9964 168.4 52.5378 174.492 42.7915 182.827" fill="black"/>
</g>
<path d="M32.5948 162.064C32.5948 162.064 32.3707 161.75 31.9841 161.173C31.433 160.368 30.8284 159.6 30.1744 158.876C28.031 156.458 25.3416 154.587 22.3296 153.418C19.3175 152.248 16.0699 151.815 12.8566 152.153C11.885 152.248 10.921 152.409 9.97127 152.635C9.62474 152.735 9.27315 152.817 8.91797 152.881C8.99953 152.832 9.08842 152.796 9.18129 152.775C9.35498 152.713 9.6071 152.618 9.94326 152.528C10.8896 152.261 11.8566 152.074 12.8342 151.968C16.0829 151.57 19.3797 151.979 22.432 153.161C25.4842 154.343 28.1976 156.26 30.3313 158.741C30.9773 159.485 31.5619 160.279 32.0794 161.117C32.2698 161.414 32.3875 161.677 32.4771 161.812C32.5668 161.946 32.606 162.064 32.5948 162.064Z" fill="#263238"/>
<path d="M37.0545 159.851C37.0545 159.851 36.9985 159.767 36.9201 159.593L36.6007 158.831C36.4662 158.501 36.3038 158.097 36.074 157.643C35.8443 157.19 35.6258 156.657 35.3009 156.103L34.8191 155.223C34.651 154.921 34.4493 154.618 34.2588 154.299C33.8778 153.649 33.396 153.004 32.9142 152.315C30.7281 149.37 28.034 146.839 24.9584 144.841C24.2412 144.393 23.5689 143.956 22.9022 143.62C22.5717 143.441 22.2579 143.256 21.9441 143.105L21.0365 142.679C20.4763 142.393 19.916 142.197 19.451 142.006C19.0523 141.833 18.6446 141.682 18.2296 141.553L17.4508 141.278C17.3577 141.252 17.2689 141.213 17.1875 141.16C17.2829 141.171 17.3768 141.191 17.4676 141.222L18.2632 141.441C18.6846 141.555 19.0997 141.692 19.507 141.85C19.9832 142.034 20.5379 142.214 21.1206 142.494L22.0394 142.903C22.3588 143.049 22.6781 143.233 23.0143 143.402C23.6978 143.738 24.3757 144.175 25.1041 144.612C26.6544 145.617 28.1146 146.755 29.4685 148.013C30.8066 149.285 32.0307 150.672 33.1271 152.158C33.6145 152.859 34.0851 153.514 34.4661 154.17C34.6566 154.495 34.8583 154.803 35.0264 155.111L35.497 156.008C35.8107 156.568 36.0236 157.128 36.2309 157.576C36.4156 157.972 36.5783 158.378 36.7184 158.792L36.9873 159.571C37.0192 159.662 37.0417 159.755 37.0545 159.851Z" fill="#263238"/>
<path d="M121.767 132.818C121.774 132.858 121.774 132.9 121.767 132.941L121.688 133.316C121.61 133.664 121.503 134.134 121.363 134.734C121.077 135.961 120.657 137.742 120.181 139.95C118.89 145.687 118.152 151.535 117.979 157.413C117.894 160.646 118.125 163.879 118.668 167.067C119.103 169.672 119.799 172.227 120.747 174.692C121.387 176.352 122.153 177.961 123.038 179.505C123.347 180.065 123.627 180.463 123.789 180.748L123.985 181.073C124.008 181.111 124.027 181.15 124.041 181.191C124.041 181.191 124.008 181.163 123.957 181.09L123.739 180.782C123.559 180.502 123.263 180.11 122.943 179.561C122.014 178.032 121.215 176.428 120.556 174.765C119.569 172.294 118.843 169.727 118.388 167.106C117.82 163.906 117.573 160.657 117.649 157.408C117.819 151.511 118.587 145.647 119.94 139.905C120.439 137.698 120.893 135.927 121.212 134.706C121.374 134.112 121.503 133.647 121.593 133.3C121.638 133.154 121.671 133.036 121.699 132.935L121.767 132.818Z" fill="#263238"/>
<path d="M117.839 156.562C117.826 156.421 117.826 156.278 117.839 156.136C117.869 155.834 117.903 155.43 117.94 154.926C117.996 154.405 118.041 153.761 118.097 153.016C118.153 152.271 118.215 151.419 118.271 150.478C118.506 146.718 118.668 141.513 118.629 135.765C118.59 130.017 118.36 124.812 118.119 121.052C118.007 119.17 117.89 117.652 117.806 116.598C117.772 116.094 117.744 115.696 117.722 115.388C117.704 115.247 117.704 115.104 117.722 114.962C117.754 115.101 117.777 115.241 117.789 115.383C117.822 115.685 117.873 116.089 117.934 116.587C118.047 117.635 118.198 119.159 118.338 121.036C118.629 124.795 118.898 130 118.932 135.765C118.965 141.53 118.775 146.729 118.484 150.489C118.422 151.43 118.349 152.282 118.271 153.027C118.192 153.772 118.136 154.416 118.069 154.937C118.002 155.458 117.951 155.839 117.912 156.142C117.897 156.283 117.872 156.424 117.839 156.562Z" fill="#263238"/>
<path d="M106.202 103.953C106.186 104.115 106.146 104.273 106.085 104.424C105.91 104.857 105.633 105.241 105.278 105.544C104.718 106.033 104.037 106.362 103.306 106.497C102.346 106.662 101.369 106.706 100.398 106.626L100.426 106.424L104.185 107.354H104.292V107.455C103.928 111.141 103.39 115.556 102.611 120.268C101.563 126.739 100.269 132.538 99.2495 136.706C98.7228 138.785 98.269 140.466 97.9385 141.62C97.776 142.18 97.6471 142.617 97.5463 142.942C97.5051 143.098 97.4546 143.251 97.395 143.401C97.4118 143.242 97.4436 143.084 97.4903 142.931C97.5743 142.595 97.6864 142.152 97.832 141.586C98.1234 140.426 98.5492 138.74 99.0534 136.656C100.039 132.482 101.294 126.683 102.348 120.223C103.082 115.562 103.642 111.136 104.034 107.46L104.129 107.589L100.376 106.62L100.409 106.418C101.363 106.508 102.325 106.482 103.272 106.34C103.982 106.22 104.648 105.917 105.205 105.46C105.558 105.176 105.84 104.813 106.029 104.401C106.158 104.116 106.186 103.953 106.202 103.953Z" fill="#263238"/>
<g opacity="0.3">
<path opacity="0.3" d="M33.5081 121.064C32.9408 120.248 32.2399 119.534 31.4351 118.952C31.1598 118.712 30.8137 118.568 30.4494 118.542C30.085 118.516 29.7221 118.61 29.4157 118.809C29.1092 119.007 28.8759 119.301 28.751 119.644C28.6261 119.987 28.6164 120.362 28.7234 120.711C28.8685 121.334 29.1166 121.929 29.4573 122.47C33.0385 129.056 35.4104 136.231 36.4607 143.654C36.9089 146.825 37.1106 150.041 37.7941 153.178C38.4776 156.316 39.1836 158.686 41.363 161.022L42.2594 160.641C42.1588 159.799 42.0129 158.963 41.8224 158.137C38.9034 145.962 36.3486 133.816 33.5081 121.064Z" fill="black"/>
</g>
<g opacity="0.3">
<path opacity="0.3" d="M32.97 162.187C32.5834 159.274 30.729 156.702 28.3814 154.904C26.0339 153.105 23.2326 152.102 20.4201 151.228C18.9182 150.705 17.3377 150.444 15.7474 150.455C14.1619 150.545 11.1925 151.223 10.2625 152.511C20.7562 150.035 28.3814 154.904 32.5722 162.406" fill="black"/>
</g>
<g opacity="0.3">
<path opacity="0.3" d="M118.209 124.56C117.413 133.188 115.094 141.608 114.063 150.208C113.032 158.809 113.43 167.958 117.649 175.51C119.072 178.048 121.083 180.48 123.873 181.326C120.551 177.337 118.915 172.171 118.315 167.011C117.716 161.851 118.063 156.646 118.315 151.458C118.708 142.494 118.723 133.529 118.36 124.565" fill="black"/>
</g>
<path d="M34.8078 127.104C34.5877 127.223 34.357 127.323 34.1187 127.4C33.4784 127.641 32.8257 127.846 32.1634 128.017C31.1821 128.264 30.1867 128.451 29.1827 128.577C27.9491 128.734 26.7061 128.805 25.4626 128.79C24.2197 128.756 22.9805 128.638 21.7536 128.437C20.7531 128.269 19.7649 128.035 18.7954 127.737C18.1405 127.543 17.4971 127.313 16.8681 127.048C16.6332 126.961 16.4063 126.854 16.1902 126.728C16.4368 126.77 16.6776 126.842 16.9073 126.941C17.3611 127.104 18.0279 127.316 18.8514 127.541C19.822 127.803 20.8057 128.014 21.7984 128.174C24.2311 128.553 26.7038 128.6 29.1491 128.314C30.146 128.195 31.1354 128.021 32.1129 127.793C32.9477 127.597 33.62 127.412 34.0795 127.266C34.3148 127.183 34.5594 127.128 34.8078 127.104Z" fill="white"/>
<path d="M63.398 121.081C62.7074 121.662 61.956 122.167 61.157 122.588C57.4441 124.6 53.12 125.175 49.0104 124.201C47.1006 123.734 45.2902 122.927 43.6655 121.82C41.8649 120.6 40.3054 119.058 39.0657 117.271C38.4165 116.323 37.8628 115.313 37.4129 114.256C36.9319 113.172 36.6056 112.025 36.4437 110.85C36.265 109.663 36.3628 108.452 36.7294 107.309C36.9101 106.747 37.2015 106.227 37.5864 105.78C37.9713 105.332 38.4419 104.967 38.9705 104.704C40.0151 104.239 41.1917 104.163 42.2872 104.491C43.3396 104.781 44.2708 105.401 44.9429 106.261C45.5504 107.084 45.9363 108.048 46.0634 109.063C46.1878 110.021 46.1173 110.995 45.8561 111.926C45.3458 113.579 44.3527 115.043 43.0044 116.128C41.9114 117.024 40.6794 117.735 39.357 118.234C38.3642 118.607 37.3456 118.906 36.3092 119.131C35.4576 119.316 34.7853 119.428 34.3371 119.495L33.816 119.573C33.7583 119.58 33.7001 119.58 33.6423 119.573L33.816 119.529L34.3259 119.428C34.7741 119.338 35.4464 119.209 36.2812 119.008C37.3072 118.767 38.3146 118.452 39.2954 118.066C40.5943 117.565 41.8019 116.853 42.8699 115.96C44.1747 114.892 45.1323 113.461 45.6208 111.847C45.8685 110.95 45.9314 110.013 45.8057 109.091C45.6841 108.114 45.3073 107.186 44.7132 106.402C44.0776 105.582 43.1926 104.992 42.192 104.721C41.163 104.413 40.0576 104.484 39.0769 104.922C38.5831 105.169 38.1438 105.513 37.7849 105.932C37.426 106.352 37.1547 106.839 36.9871 107.365C36.6344 108.464 36.5404 109.63 36.7126 110.772C36.8713 111.931 37.192 113.063 37.665 114.133C38.953 117.162 41.0943 119.751 43.828 121.585C45.4245 122.682 47.2042 123.484 49.0833 123.955C50.7229 124.354 52.4129 124.507 54.0976 124.408C56.5478 124.266 58.9401 123.608 61.1178 122.476C61.4622 122.308 61.797 122.12 62.1206 121.915C62.4064 121.747 62.6473 121.596 62.8322 121.461L63.2636 121.17L63.398 121.081Z" fill="white"/>
<path d="M67.5496 98.9498C67.5496 99.0003 66.8381 99.0563 65.7007 99.2692C64.2221 99.5455 62.7802 99.9911 61.4035 100.597C60.0281 101.207 58.7257 101.97 57.5208 102.872C56.5964 103.566 56.0754 104.059 56.0361 103.992C56.1319 103.852 56.2448 103.724 56.3723 103.611C56.6935 103.279 57.036 102.969 57.3976 102.681C58.5809 101.716 59.8887 100.916 61.2858 100.3C62.6841 99.6869 64.1573 99.2612 65.6671 99.0339C66.1238 98.9658 66.5839 98.9228 67.0454 98.905C67.2147 98.8944 67.3847 98.9095 67.5496 98.9498Z" fill="white"/>
<path d="M76.7493 142.6L76.5532 142.522L75.9929 142.275C75.2661 141.972 74.5168 141.727 73.7519 141.541C70.9537 140.88 68.0289 140.987 65.2862 141.849C63.394 142.424 61.6225 143.339 60.059 144.55C58.2598 145.932 56.7131 147.616 55.4872 149.525C54.1241 151.628 53.1276 153.946 52.5402 156.383C52.2 157.651 52.2136 158.988 52.5794 160.248C52.8113 160.872 53.1916 161.431 53.6875 161.875C54.1834 162.319 54.7799 162.636 55.4256 162.798C56.7279 163.158 58.1075 163.127 59.3922 162.708C60.6443 162.307 61.7765 161.6 62.6866 160.652C63.5693 159.746 64.1353 158.578 64.3002 157.324C64.3662 156.72 64.3245 156.109 64.1769 155.52C64.0189 154.945 63.7792 154.396 63.4654 153.889C62.8291 152.924 62.0038 152.096 61.0394 151.458C60.1293 150.847 59.1371 150.368 58.0924 150.035C57.116 149.72 56.1126 149.497 55.095 149.368C54.1541 149.261 53.2059 149.231 52.2601 149.278C49.3903 149.414 46.6015 150.274 44.153 151.777C43.4877 152.186 42.8529 152.643 42.2537 153.144L41.7887 153.536L41.6262 153.66C41.6696 153.608 41.7164 153.559 41.7663 153.514L42.2145 153.099C42.8006 152.577 43.4283 152.103 44.0914 151.682C46.5437 150.126 49.3547 149.227 52.2545 149.071C53.211 149.015 54.1705 149.04 55.123 149.144C56.1557 149.268 57.1743 149.489 58.1653 149.805C59.2337 150.138 60.2488 150.623 61.1795 151.245C62.1796 151.898 63.0357 152.748 63.6951 153.744C64.0258 154.274 64.2768 154.85 64.4402 155.453C64.5993 156.074 64.6467 156.719 64.5803 157.357C64.4098 158.671 63.8204 159.895 62.8995 160.848C61.9576 161.834 60.7849 162.569 59.4875 162.988C58.1462 163.424 56.7061 163.455 55.3471 163.078C54.6579 162.901 54.0218 162.56 53.493 162.084C52.9642 161.608 52.5585 161.011 52.3105 160.344C51.9264 159.032 51.9109 157.641 52.2657 156.321C52.8639 153.853 53.8795 151.505 55.2687 149.379C56.5148 147.442 58.0883 145.735 59.9189 144.337C61.5077 143.116 63.3083 142.198 65.2302 141.631C68.0075 140.772 70.968 140.696 73.7855 141.412C74.555 141.607 75.3051 141.871 76.0265 142.202L76.5868 142.477L76.7493 142.6Z" fill="white"/>
<path d="M25.6419 144.813C25.6419 144.869 25.0088 144.948 24.0451 145.284C23.483 145.482 22.9393 145.73 22.4203 146.023C21.1459 146.741 20.0398 147.723 19.1764 148.903C18.8285 149.387 18.5212 149.898 18.2576 150.433C17.8094 151.351 17.6581 151.973 17.6021 151.957C17.6019 151.804 17.6265 151.653 17.6749 151.508C17.7697 151.109 17.901 150.719 18.0671 150.343C18.3116 149.783 18.61 149.248 18.9579 148.746C19.3948 148.134 19.8963 147.57 20.4538 147.065C21.0192 146.584 21.6354 146.165 22.2915 145.816C22.8253 145.524 23.3887 145.289 23.9723 145.116C24.3647 144.993 24.7681 144.908 25.1768 144.864C25.3282 144.822 25.4852 144.805 25.6419 144.813Z" fill="white"/>
<path d="M44.5284 173.538C44.5284 173.538 44.478 173.499 44.3883 173.409C44.2987 173.32 44.1642 173.168 44.0017 173C43.6656 172.642 43.1669 172.109 42.5058 171.454C40.6722 169.559 38.6007 167.909 36.3429 166.546C34.7828 165.619 33.0926 164.932 31.3285 164.507C29.3061 164.033 27.2074 163.986 25.1656 164.367C22.9012 164.784 20.8331 165.924 19.2716 167.616C18.4635 168.506 17.9422 169.619 17.7757 170.81C17.6895 171.415 17.7317 172.032 17.8997 172.619C18.0677 173.207 18.3576 173.753 18.7506 174.222C19.1564 174.673 19.6743 175.009 20.2518 175.196C20.8293 175.383 21.446 175.414 22.0393 175.286C22.6121 175.144 23.1232 174.819 23.496 174.362C23.8647 173.906 24.1183 173.368 24.2356 172.793C24.4611 171.656 24.2618 170.476 23.6753 169.476C23.1216 168.509 22.336 167.695 21.3894 167.106C19.5943 166.049 17.5038 165.605 15.4338 165.84C13.6256 166.009 11.8443 166.395 10.1281 166.989C7.62445 167.818 5.2471 168.989 3.06312 170.468C2.28996 170.995 1.71849 171.437 1.3263 171.74L0.889296 172.087C0.788448 172.165 0.738025 172.205 0.732422 172.199C1.43115 171.535 2.18043 170.926 2.97349 170.378C5.15722 168.848 7.54981 167.641 10.0777 166.793C11.8068 166.181 13.6032 165.781 15.4282 165.599C17.5522 165.349 19.6997 165.798 21.5463 166.877C22.5327 167.487 23.3527 168.332 23.933 169.336C24.5572 170.396 24.7686 171.649 24.5269 172.855C24.4047 173.471 24.1335 174.048 23.7369 174.535C23.3232 175.041 22.7572 175.398 22.1234 175.555C21.4792 175.697 20.8089 175.666 20.1809 175.464C19.5528 175.262 18.9897 174.897 18.5489 174.407C18.13 173.906 17.8207 173.324 17.6412 172.696C17.4617 172.069 17.4159 171.411 17.5068 170.765C17.6779 169.511 18.2249 168.339 19.0755 167.403C20.6771 165.667 22.8016 164.5 25.1264 164.081C27.2106 163.698 29.3518 163.755 31.4126 164.249C33.1886 164.692 34.8883 165.398 36.455 166.344C38.7225 167.731 40.7951 169.413 42.6179 171.347C43.2678 172.025 43.7384 172.569 44.0746 172.939L44.4387 173.364L44.5284 173.538Z" fill="white"/>
<path d="M117.974 157.716C117.86 157.815 117.736 157.901 117.604 157.974C117.481 158.052 117.329 158.153 117.144 158.26L116.483 158.59C116.231 158.713 115.923 158.814 115.62 158.943C115.318 159.072 114.943 159.15 114.562 159.257C113.683 159.457 112.785 159.563 111.884 159.571C109.515 159.574 107.203 158.848 105.261 157.492C104.078 156.724 103.147 155.625 102.583 154.332C102.324 153.608 102.324 152.816 102.583 152.091C102.723 151.721 102.948 151.39 103.24 151.123C103.532 150.856 103.883 150.662 104.264 150.556C105.008 150.384 105.783 150.39 106.524 150.575C107.265 150.76 107.952 151.118 108.528 151.62C109.089 152.073 109.539 152.648 109.844 153.301C110.134 153.943 110.224 154.658 110.102 155.352C109.974 156.002 109.693 156.613 109.284 157.133C108.904 157.618 108.464 158.051 107.973 158.422C107.102 159.072 106.163 159.624 105.172 160.069C103.735 160.72 102.212 161.159 100.65 161.375C100.09 161.448 99.6641 161.481 99.3728 161.492C99.2238 161.507 99.0736 161.507 98.9246 161.492C99.0702 161.461 99.2183 161.442 99.3672 161.436C99.6585 161.403 100.084 161.352 100.628 161.263C102.177 161.009 103.685 160.545 105.11 159.884C106.086 159.435 107.01 158.881 107.866 158.232C108.871 157.534 109.588 156.494 109.883 155.307C109.967 154.646 109.873 153.975 109.611 153.362C109.349 152.75 108.929 152.218 108.393 151.822C107.852 151.352 107.208 151.016 106.513 150.842C105.818 150.668 105.091 150.66 104.393 150.819C104.052 150.912 103.738 151.083 103.476 151.319C103.214 151.556 103.012 151.851 102.886 152.181C102.648 152.838 102.648 153.557 102.886 154.214C103.351 155.531 104.432 156.484 105.452 157.251C107.343 158.588 109.596 159.317 111.912 159.341C112.798 159.345 113.682 159.257 114.55 159.078C114.931 158.977 115.284 158.893 115.604 158.786C115.923 158.68 116.214 158.579 116.466 158.467L117.133 158.159C117.324 158.064 117.475 157.968 117.604 157.901C117.723 157.832 117.847 157.77 117.974 157.716Z" fill="white"/>
<path d="M101.799 119.153C100.812 119.416 99.8443 119.745 98.9021 120.139C98.0027 120.616 97.1378 121.155 96.3137 121.753C96.9603 120.925 97.8094 120.279 98.7789 119.876C99.7087 119.385 100.747 119.136 101.799 119.153Z" fill="white"/>
<path d="M73.6061 119.282C73.5289 119.735 73.3794 120.172 73.1635 120.577C72.6914 121.579 72.0573 122.497 71.2866 123.294C70.5161 124.091 69.621 124.757 68.6365 125.266C68.2369 125.493 67.8039 125.656 67.3535 125.748C68.7206 125.053 69.9763 124.158 71.0793 123.092C72.1085 121.957 72.9603 120.672 73.6061 119.282Z" fill="white"/>
<path d="M110.169 92.8491C110.169 92.8491 109.771 92.9219 109.049 93.1012C108.049 93.3566 107.079 93.7133 106.152 94.1657C105.511 94.4701 104.894 94.8202 104.303 95.2134C103.627 95.6539 103.036 96.214 102.561 96.8662C102.049 97.5857 101.789 98.4543 101.821 99.3369C101.846 99.7946 101.979 100.24 102.208 100.637C102.459 101.032 102.819 101.348 103.244 101.544C103.664 101.75 104.138 101.823 104.6 101.752C105.049 101.683 105.452 101.439 105.721 101.074C105.953 100.712 106.083 100.294 106.098 99.8639C106.113 99.434 106.012 99.0081 105.805 98.631C105.608 98.2905 105.341 97.9953 105.023 97.7646C104.704 97.5339 104.341 97.3729 103.956 97.292C103.275 97.132 102.565 97.1416 101.888 97.32C100.905 97.617 99.9893 98.1043 99.1936 98.7543C98.6333 99.1969 98.3084 99.4658 98.2916 99.449C98.2747 99.4322 98.3532 99.365 98.4932 99.2305C98.6333 99.096 98.8406 98.8999 99.1207 98.6702C99.9053 97.9704 100.83 97.4453 101.832 97.1295C102.542 96.9259 103.291 96.9028 104.012 97.0623C104.435 97.1457 104.835 97.3183 105.185 97.5685C105.536 97.8187 105.829 98.1408 106.046 98.5134C106.278 98.9352 106.392 99.4121 106.375 99.8935C106.359 100.375 106.212 100.843 105.95 101.247C105.645 101.672 105.183 101.958 104.667 102.043C104.146 102.124 103.612 102.044 103.138 101.813C102.66 101.594 102.257 101.239 101.978 100.794C101.724 100.356 101.578 99.8645 101.552 99.3593C101.52 98.4128 101.804 97.4825 102.359 96.7149C102.859 96.0466 103.478 95.4768 104.186 95.0341C104.792 94.6425 105.427 94.2961 106.085 93.9976C107.03 93.5577 108.023 93.2269 109.043 93.0115C109.402 92.9387 109.687 92.9051 109.878 92.8827C109.973 92.8583 110.071 92.847 110.169 92.8491Z" fill="white"/>
<path d="M117.48 127.193C117.391 127.325 117.293 127.452 117.189 127.574C117.088 127.691 116.943 127.815 116.78 127.977C116.575 128.141 116.358 128.289 116.13 128.42C115.39 128.823 114.572 129.066 113.731 129.131C112.89 129.197 112.045 129.084 111.25 128.801C110.141 128.423 109.155 127.751 108.399 126.857C107.535 125.835 106.904 124.639 106.55 123.349C106.145 121.932 105.995 120.454 106.107 118.985C106.177 117.387 106.734 115.848 107.704 114.576C108.214 113.949 108.872 113.458 109.617 113.146C110.363 112.835 111.174 112.712 111.979 112.788C112.752 112.88 113.473 113.229 114.024 113.78C114.563 114.308 114.874 115.026 114.892 115.78C114.874 116.498 114.582 117.182 114.074 117.691C113.616 118.166 113.054 118.528 112.432 118.749C111.325 119.134 110.135 119.211 108.987 118.974C108.049 118.786 107.144 118.46 106.303 118.004C105.671 117.67 105.061 117.296 104.477 116.884C103.995 116.542 103.631 116.268 103.39 116.077C103.261 115.986 103.139 115.885 103.026 115.774C103.166 115.847 103.299 115.934 103.423 116.032L104.544 116.789C105.135 117.182 105.749 117.541 106.382 117.864C107.214 118.296 108.105 118.603 109.026 118.778C110.138 118.994 111.287 118.908 112.354 118.531C112.937 118.319 113.463 117.974 113.889 117.523C114.348 117.059 114.612 116.438 114.629 115.786C114.607 115.102 114.322 114.454 113.833 113.976C113.322 113.474 112.657 113.156 111.945 113.074C111.191 113.007 110.432 113.125 109.734 113.418C109.036 113.711 108.42 114.17 107.939 114.755C107.005 115.98 106.467 117.462 106.398 119.002C106.283 120.438 106.423 121.883 106.813 123.271C107.156 124.525 107.761 125.692 108.589 126.694C109.311 127.565 110.256 128.224 111.323 128.599C112.093 128.882 112.912 129.004 113.731 128.955C114.549 128.907 115.349 128.69 116.08 128.319C116.606 128.023 117.079 127.643 117.48 127.193Z" fill="white"/>
<path d="M133.207 123.159C133.207 123.221 132.249 122.879 130.664 122.761C128.593 122.603 126.518 122.996 124.648 123.899C122.779 124.802 121.181 126.184 120.019 127.905C119.553 128.626 119.13 129.375 118.752 130.146C118.791 129.914 118.863 129.69 118.965 129.479C119.206 128.893 119.5 128.33 119.845 127.798C120.984 126.005 122.601 124.566 124.512 123.64C126.424 122.715 128.556 122.341 130.669 122.56C131.303 122.621 131.93 122.743 132.541 122.924C132.771 122.977 132.995 123.056 133.207 123.159Z" fill="white"/>
<g opacity="0.3">
<path opacity="0.3" d="M98.1403 91.5211C104.46 94.6025 112.147 94.7818 117.778 98.9614C121.052 101.392 123.309 104.949 124.113 108.946C124.917 112.944 124.211 117.097 122.131 120.604C121.722 117.041 121.01 112.996 117.996 111.08C116.674 110.245 115.094 109.959 113.626 109.399C111.973 108.794 110.449 107.864 108.774 107.332C106.533 106.615 104.057 106.643 101.804 105.897C99.5522 105.152 97.3615 103.231 97.5296 100.855L98.1403 91.5211Z" fill="black"/>
</g>
<path d="M122.063 119.629L121.167 108.362C121.167 108.362 115.055 107.18 112.886 105.802C110.718 104.424 106.751 101.555 106.751 101.555C106.751 101.555 105.793 104.995 103.821 105.191L102.045 105.393L101.961 98.4569C101.961 98.4569 101.625 101.572 99.0645 102.054C98.5043 102.166 98.4763 102.054 98.4763 102.054L96.745 92.9719C96.745 92.9719 94.6945 95.6275 90.9463 93.8571C90.9463 93.8571 97.0196 83.2681 98.2017 82.8759C99.3839 82.4837 105.771 82.3156 105.771 82.3156C105.771 82.3156 114.64 81.7554 115.626 82.1363C116.612 82.5173 117.99 84.0861 117.99 84.0861C117.99 84.0861 128.439 94.1428 131.79 97.4932C134.432 100.281 136.212 103.774 136.916 107.55C137.118 109.32 138.597 116.71 138.597 116.71" fill="#B47266"/>
<path d="M138.631 116.738L138.58 116.553L138.463 115.993C138.362 115.5 138.211 114.789 138.02 113.859C137.83 112.929 137.611 111.774 137.348 110.424C137.224 109.752 137.09 109.023 136.961 108.245C136.894 107.858 136.86 107.449 136.782 107.046C136.703 106.642 136.591 106.228 136.468 105.808C135.909 103.955 135.104 102.186 134.076 100.547C133.496 99.6214 132.83 98.7528 132.087 97.9526C131.308 97.1346 130.434 96.3334 129.571 95.4818L117.923 84.1869C117.573 83.7912 117.198 83.417 116.803 83.0664C116.429 82.7037 115.982 82.4249 115.492 82.2484C114.959 82.1735 114.421 82.1416 113.884 82.1531C113.324 82.1531 112.763 82.1531 112.203 82.1531C109.962 82.2035 107.682 82.3436 105.334 82.4557C104.163 82.4893 102.981 82.5341 101.793 82.6013C101.199 82.635 100.6 82.6742 100 82.7246C99.4109 82.7592 98.8259 82.8473 98.2524 82.9879C98.022 83.1411 97.8177 83.3303 97.6473 83.5482C97.4568 83.7835 97.2663 84.0188 97.087 84.2653C96.7284 84.7584 96.3811 85.2626 96.0393 85.778C95.3614 86.7977 94.7003 87.851 94.0448 88.9155C93.0307 90.5963 92.0446 92.2323 91.0978 93.8739L91.0305 93.6722C91.9619 94.1408 93.0072 94.3351 94.0448 94.2324C95.0533 94.0966 95.9796 93.6036 96.6556 92.843L96.8573 92.6133L96.9077 92.9046C97.5016 96.0141 98.0787 99.0675 98.6333 101.987C98.6333 101.902 98.6053 101.925 98.5941 101.908H98.6614C98.7154 101.914 98.7698 101.914 98.8238 101.908C98.9354 101.896 99.0459 101.875 99.1544 101.846L99.4794 101.757L99.7875 101.628C100.19 101.436 100.545 101.159 100.83 100.816C101.382 100.114 101.735 99.2755 101.849 98.3896H102.118C102.118 100.788 102.137 103.103 102.174 105.337L102.034 105.214L103.76 105.023C104.294 104.954 104.785 104.691 105.138 104.284C105.836 103.47 106.349 102.514 106.64 101.482L106.684 101.331L106.819 101.421L110.595 104.032L112.371 105.264C112.921 105.672 113.522 106.007 114.158 106.261C115.351 106.734 116.573 107.129 117.817 107.444C118.999 107.752 120.125 108.004 121.178 108.228H121.24V108.29C121.503 111.853 121.716 114.671 121.862 116.604C121.929 117.562 121.98 118.285 122.019 118.806C122.019 119.047 122.019 119.237 122.052 119.366C122.056 119.429 122.056 119.493 122.052 119.556C122.052 119.556 122.052 119.495 122.052 119.366C122.052 119.237 122.019 119.047 121.996 118.806C121.952 118.296 121.884 117.562 121.8 116.604C121.638 114.671 121.403 111.858 121.1 108.301L121.167 108.368C120.097 108.161 118.971 107.909 117.806 107.6C116.551 107.291 115.317 106.9 114.113 106.429C113.465 106.174 112.853 105.835 112.293 105.421L110.505 104.194C109.29 103.359 108.023 102.513 106.718 101.594L106.897 101.533C106.6 102.605 106.072 103.599 105.351 104.446C104.958 104.899 104.411 105.19 103.816 105.264L102.096 105.46H101.956V105.32C101.933 103.079 101.909 100.761 101.883 98.3672H102.152C102.031 99.3055 101.659 100.194 101.076 100.939C100.77 101.312 100.388 101.615 99.9556 101.83L99.6194 101.97L99.2664 102.065C99.1468 102.096 99.0251 102.118 98.9023 102.132H98.7062H98.5941H98.5269C98.5079 102.127 98.4905 102.118 98.4765 102.104C98.4765 102.104 98.4373 102.104 98.4092 101.992L96.678 92.9102L96.9357 92.9718C96.2145 93.7949 95.2191 94.3284 94.1344 94.4734C93.0456 94.5919 91.9456 94.3976 90.9633 93.9131L90.8232 93.8459L90.9017 93.7114C91.8541 92.0605 92.8383 90.404 93.8543 88.7418C94.5098 87.6773 95.1709 86.624 95.8544 85.5932C96.1962 85.0777 96.5436 84.5679 96.9133 84.0692C97.0926 83.8227 97.2831 83.5818 97.4736 83.3409C97.6703 83.0766 97.9156 82.8522 98.1963 82.6798C98.7969 82.5302 99.4104 82.4383 100.028 82.4052C100.628 82.3492 101.233 82.3156 101.827 82.2764C103.02 82.2147 104.208 82.1699 105.379 82.1363C107.71 82.0299 110.007 81.8898 112.248 81.845C112.808 81.845 113.368 81.845 113.929 81.845C114.491 81.836 115.053 81.8716 115.609 81.9514C116.14 82.138 116.624 82.4382 117.027 82.831C117.434 83.1791 117.817 83.5534 118.175 83.9516L129.79 95.2689C130.658 96.1261 131.521 96.9497 132.305 97.7509C133.053 98.5661 133.723 99.4496 134.305 100.39C135.337 102.047 136.14 103.835 136.692 105.707C136.81 106.132 136.922 106.547 136.995 106.962C137.068 107.376 137.107 107.78 137.174 108.166C137.292 108.945 137.415 109.668 137.538 110.346C137.785 111.696 137.998 112.85 138.171 113.791C138.345 114.733 138.479 115.433 138.575 115.932C138.614 116.167 138.648 116.346 138.67 116.492C138.692 116.637 138.631 116.738 138.631 116.738Z" fill="#89544C"/>
<path d="M107.295 82.8759C107.295 82.9263 106.365 83.0944 104.919 83.593C103.045 84.2668 101.229 85.0932 99.4904 86.0638C98.9932 86.3149 98.5409 86.6461 98.1514 87.0443C97.8027 87.4238 97.5239 87.8619 97.3278 88.3385C96.9672 89.1468 96.7911 90.0253 96.8123 90.9101C96.8123 91.6721 96.8684 92.294 96.874 92.7198C96.8945 92.9441 96.885 93.1702 96.846 93.3921C96.7937 93.1753 96.7637 92.9538 96.7563 92.731C96.7171 92.2996 96.6331 91.6889 96.605 90.9157C96.5534 89.9963 96.7164 89.0775 97.0813 88.232C97.2811 87.7215 97.5737 87.2524 97.9441 86.8482C98.3523 86.4258 98.8275 86.0737 99.3503 85.8061C101.102 84.8222 102.947 84.0152 104.858 83.3969C105.439 83.2166 106.03 83.0688 106.628 82.9543C106.846 82.8988 107.07 82.8725 107.295 82.8759Z" fill="#89544C"/>
<path d="M113.951 84.8593C113.671 84.9697 113.382 85.0578 113.088 85.1226C112.528 85.2907 111.727 85.5148 110.763 85.8846C109.634 86.3187 108.547 86.8531 107.514 87.4814C106.92 87.8231 106.292 88.1873 105.625 88.5347C104.959 88.882 104.236 89.1846 103.592 89.5935C103.272 89.7887 102.991 90.0414 102.762 90.3387C102.556 90.6368 102.402 90.9685 102.309 91.3192C102.133 92.0064 102.017 92.7074 101.961 93.4146C101.88 94.6215 101.88 95.8325 101.961 97.0395C102.012 98.076 102.062 98.9164 102.073 99.499C102.1 99.7991 102.1 100.101 102.073 100.401C102.016 100.105 101.982 99.8056 101.972 99.5046C101.922 98.8715 101.849 98.048 101.765 97.0507C101.661 95.8339 101.646 94.6111 101.72 93.3921C101.773 92.6666 101.887 91.9468 102.062 91.2407C102.163 90.8582 102.33 90.4961 102.555 90.1706C102.801 89.8414 103.107 89.5619 103.457 89.347C104.152 88.9156 104.869 88.6355 105.525 88.2825C106.18 87.9296 106.808 87.5822 107.407 87.246C108.461 86.6264 109.569 86.105 110.718 85.6885C111.495 85.4203 112.286 85.1959 113.088 85.0162C113.37 84.9367 113.659 84.8842 113.951 84.8593Z" fill="#89544C"/>
<path d="M117.201 87.812C116.972 87.9297 116.731 88.0236 116.483 88.0921C116.018 88.2602 115.363 88.5011 114.528 88.8429C112.387 89.6914 110.441 90.9667 108.808 92.5911C107.945 93.5017 107.285 94.5842 106.869 95.7678C106.532 96.739 106.36 97.7596 106.359 98.7876C106.385 99.7331 106.517 100.673 106.752 101.589C106.752 101.589 106.712 101.533 106.662 101.41C106.589 101.227 106.527 101.04 106.477 100.849C106.275 100.171 106.166 99.4676 106.152 98.7596C106.089 96.3868 106.969 94.0859 108.6 92.3614C110.26 90.7215 112.255 89.4617 114.45 88.6692C115.284 88.3499 115.968 88.109 116.45 88.0025C116.693 87.9129 116.944 87.8491 117.201 87.812Z" fill="#89544C"/>
<path d="M120.579 94.8322C120.579 94.8322 120.545 94.8826 120.444 94.9443C120.298 95.0311 120.136 95.09 119.968 95.118C119.347 95.1885 118.719 95.0918 118.147 94.8378C117.765 94.6848 117.369 94.5685 116.965 94.4905C116.507 94.4248 116.04 94.4788 115.609 94.6473C114.618 95.1046 113.678 95.6681 112.808 96.3281C111.906 96.9258 111.124 97.6857 110.5 98.5692C110.099 99.3839 109.604 100.149 109.026 100.849C108.78 101.107 108.497 101.326 108.186 101.499C107.943 101.629 107.671 101.691 107.396 101.679C107.226 101.673 107.058 101.643 106.897 101.589C106.791 101.55 106.735 101.527 106.74 101.516C106.746 101.505 106.976 101.572 107.396 101.567C107.647 101.555 107.891 101.482 108.107 101.354C108.395 101.177 108.655 100.96 108.881 100.709C109.42 99.9955 109.887 99.2298 110.276 98.4235C110.899 97.4879 111.703 96.686 112.64 96.0648C113.122 95.7174 113.598 95.4037 114.063 95.1011C114.513 94.7949 114.998 94.5446 115.509 94.356C115.982 94.1791 116.494 94.1289 116.993 94.2103C117.41 94.3022 117.817 94.4335 118.209 94.6025C118.747 94.8655 119.342 94.9906 119.94 94.9667C120.157 94.9456 120.372 94.9005 120.579 94.8322Z" fill="#89544C"/>
<path d="M124.445 108.043C124.292 107.977 124.151 107.888 124.024 107.78C123.659 107.517 123.313 107.229 122.988 106.917C120.805 104.858 119.328 102.162 118.769 99.2135C118.679 98.7719 118.621 98.3244 118.595 97.8744C118.567 97.7113 118.567 97.5446 118.595 97.3814C118.646 97.3814 118.708 98.0761 118.965 99.1743C119.633 102.042 121.077 104.67 123.139 106.771C123.918 107.573 124.478 108.004 124.445 108.043Z" fill="#89544C"/>
<path d="M133.235 106.307C133.041 106.685 132.77 107.019 132.44 107.287C131.675 107.978 130.766 108.489 129.778 108.783C128.79 109.076 127.748 109.141 126.73 108.974C126.308 108.928 125.898 108.798 125.526 108.593C125.526 108.542 126.002 108.688 126.758 108.772C127.745 108.876 128.742 108.785 129.693 108.503C130.643 108.222 131.529 107.755 132.299 107.13C132.893 106.648 133.196 106.273 133.235 106.307Z" fill="#89544C"/>
<path d="M144.541 179.751C141.848 181.918 138.419 182.954 134.977 182.64C131.535 182.327 128.349 180.688 126.092 178.07C123.515 175.056 121.47 171.347 121.783 167.386C122.579 157.442 122.097 118.044 122.097 118.044L137.908 113.982C137.908 113.982 150.094 161.604 150.693 169.913C150.968 173.549 147.987 177.012 144.541 179.751Z" fill="#B47266"/>
<path d="M17.2546 163.055H35.396L45.4359 159.526L48.3549 151.749C48.3549 151.749 54.2489 147.267 60.3726 152.926C66.4963 158.585 70.2725 169.908 70.2725 169.908L54.0248 175.566C54.0248 175.566 43.8896 183.141 42.7074 183.163L10.2737 183.6C10.2737 183.6 9.94869 169.185 17.2546 163.055Z" fill="#B47266"/>
<path d="M58.7591 159.403L56.6357 125.131C56.6197 124.827 56.6658 124.523 56.7713 124.237C56.8767 123.952 57.0392 123.691 57.249 123.47C57.4587 123.249 57.7112 123.074 57.991 122.954C58.2709 122.834 58.5723 122.772 58.8767 122.773H77.5616C78.138 122.772 78.6924 122.993 79.1098 123.391C79.5271 123.788 79.7753 124.331 79.8026 124.907L81.1473 159.173C81.157 159.473 81.1063 159.773 80.998 160.053C80.8898 160.333 80.7263 160.589 80.5172 160.805C80.3081 161.021 80.0578 161.192 79.781 161.31C79.5042 161.427 79.2067 161.487 78.9062 161.487H60.9777C60.4134 161.483 59.8715 161.266 59.4602 160.879C59.0489 160.493 58.7985 159.966 58.7591 159.403Z" fill="#263238"/>
<path d="M78.9903 143.984C78.9686 143.847 78.9574 143.708 78.9567 143.569C78.9567 143.267 78.9231 142.869 78.9007 142.376C78.8671 141.306 78.8223 139.816 78.7662 137.989C78.7102 136.163 78.6654 133.927 78.6037 131.484C78.5739 130.256 78.5459 128.974 78.5197 127.641C78.5479 126.98 78.4723 126.318 78.2956 125.68C78.1901 125.374 77.9949 125.106 77.7353 124.913C77.4637 124.727 77.1495 124.613 76.8221 124.582C76.1335 124.543 75.4433 124.543 74.7547 124.582L72.721 124.627L68.8775 124.7L62.3728 124.812L59.8741 124.845C59.2516 124.812 58.6273 124.851 58.014 124.963C57.8264 125.004 57.6505 125.087 57.4993 125.205C57.348 125.324 57.2252 125.474 57.14 125.646C57.0953 125.774 57.0725 125.909 57.0727 126.044C57.0262 125.91 57.0262 125.764 57.0727 125.63C57.1457 125.437 57.2626 125.263 57.4144 125.123C57.5661 124.983 57.7484 124.88 57.9468 124.823C58.5682 124.686 59.2044 124.627 59.8405 124.649L62.3392 124.571L68.8439 124.397L72.6873 124.307L74.7211 124.257C75.4246 124.218 76.1298 124.218 76.8333 124.257C77.2089 124.298 77.5686 124.431 77.881 124.644C78.1817 124.873 78.4063 125.187 78.5253 125.546C78.712 126.214 78.7915 126.908 78.7606 127.602C78.783 128.935 78.8054 130.216 78.8278 131.445C78.8671 133.888 78.9007 136.09 78.9287 137.95C78.9567 139.81 78.9623 141.272 78.9735 142.337C78.9735 142.835 78.9735 143.233 78.9735 143.53C78.9945 143.68 79.0001 143.833 78.9903 143.984Z" fill="#455A64"/>
<path d="M68.5414 130.689C68.4376 130.456 68.2618 130.263 68.0398 130.138C67.8179 130.013 67.5616 129.963 67.3088 129.994C67.1624 129.956 67.0096 129.95 66.8606 129.977C66.7117 130.003 66.5701 130.061 66.4454 130.146C66.3206 130.231 66.2157 130.343 66.1375 130.472C66.0593 130.601 66.0097 130.746 65.9922 130.896C65.9807 131.204 66.0743 131.507 66.2576 131.754C66.4409 132.001 66.7029 132.179 67.0006 132.258C67.2236 132.319 67.4584 132.323 67.6835 132.271C67.9086 132.218 68.1168 132.109 68.2892 131.955C68.4567 131.796 68.5709 131.589 68.616 131.362C68.6611 131.135 68.6351 130.9 68.5414 130.689Z" fill="#E0E0E0"/>
<path d="M47.9963 152.702V149.212C47.9963 149.212 51.4252 141.144 51.3243 141.441C51.2235 141.738 57.4032 137.491 57.4032 137.491C57.6138 139.267 57.5457 141.064 57.2015 142.819C56.799 144.139 56.1016 145.349 55.1621 146.36L54.6803 150.125L62.4456 143.799L71.7068 138.931C72.2564 138.887 72.808 138.986 73.3078 139.218C73.8077 139.451 74.2386 139.81 74.5585 140.259C75.7407 141.833 74.0655 143.407 73.2811 143.9C72.4968 144.393 65.4374 149.503 65.4374 149.503L61.5156 154.024L62.3504 154.977L69.2752 150.584C69.2752 150.584 78.0322 144.192 79.9987 143.794H80.1052C80.4676 143.734 80.8396 143.786 81.1725 143.941C81.5054 144.096 81.7838 144.348 81.9714 144.664C82.1589 144.979 82.2469 145.344 82.2238 145.711C82.2007 146.078 82.0677 146.429 81.842 146.718C79.4328 149.85 75.2869 155.178 75.0796 154.994C74.7826 154.736 65.7904 160.932 65.7904 160.932C65.7904 160.932 74.7826 157.98 75.5726 157.291C76.3626 156.602 84.4248 148.046 84.4248 148.046C84.4248 148.046 85.5061 148.242 85.7022 150.702L85.2148 153.162C85.2148 153.162 85.4109 153.75 85.7022 155.027C85.9936 156.305 81.4722 165.067 81.4722 165.067C81.4722 165.067 63.7622 174.805 62.0926 174.905C60.423 175.006 54.2209 174.905 54.2209 174.905L47.9963 152.702Z" fill="#B47266"/>
<path d="M85.0244 152.842C84.9463 153.104 84.8333 153.355 84.6882 153.587C84.3217 154.239 83.9118 154.866 83.4612 155.464C82.901 156.231 82.2062 157.105 81.5003 158.131C80.7202 159.247 79.8326 160.285 78.8502 161.229C77.0102 162.881 74.9561 164.277 72.7433 165.38C71.9085 165.817 71.225 166.154 70.7432 166.383C70.5045 166.515 70.253 166.622 69.9924 166.703C70.2118 166.54 70.4463 166.4 70.6928 166.282L72.6481 165.201C74.8093 164.052 76.824 162.647 78.6485 161.016C79.6195 160.086 80.5011 159.068 81.2818 157.974C81.9989 156.954 82.7217 156.086 83.2931 155.34C83.8646 154.595 84.3072 153.973 84.5873 153.531C84.7189 153.292 84.8649 153.062 85.0244 152.842Z" fill="#89544C"/>
<path d="M20.93 161.05C19.7693 161.597 18.6752 162.276 17.6693 163.073C15.3158 165.101 13.5381 167.714 12.5148 170.647C11.5202 173.59 10.8898 176.644 10.6379 179.741C10.5259 180.895 10.4362 181.841 10.369 182.542C10.3354 182.85 10.313 183.102 10.2906 183.309C10.2887 183.399 10.2716 183.488 10.2401 183.573C10.2315 183.483 10.2315 183.393 10.2401 183.304C10.2401 183.097 10.2401 182.839 10.2682 182.536C10.2682 181.87 10.3466 180.9 10.4418 179.707C10.6285 176.584 11.2295 173.5 12.2291 170.535C13.2658 167.554 15.0987 164.913 17.5292 162.899C18.2703 162.306 19.0813 161.805 19.9439 161.409C20.2465 161.257 20.5042 161.185 20.6611 161.117C20.7486 161.087 20.8386 161.065 20.93 161.05Z" fill="#263238"/>
</svg>
