<svg width="19" height="12" viewBox="0 0 19 12" fill="none" xmlns="http://www.w3.org/2000/svg">
<path d="M18.3278 0.445561C15.4391 2.68074 11.7524 5.54579 10.5925 6.49983C9.94149 7.03624 9.03796 7.03624 8.38542 6.49912C7.14906 5.48232 3.00902 2.26979 0.650986 0.445527C0.533592 0.35458 0.368343 0.334516 0.229339 0.393354C0.089593 0.452598 0 0.580189 0 0.720805V9.79694C0 10.5931 0.709294 11.2406 1.58157 11.2406H17.3972C18.2695 11.2406 18.9788 10.5931 18.9788 9.79694V0.720805C18.9788 0.580189 18.8892 0.45226 18.7494 0.393388C18.6093 0.333839 18.4444 0.354613 18.3278 0.445561Z" fill="#FD4C5C"/>
</svg>
