<svg width="187" height="24" viewBox="0 0 187 24" fill="none" xmlns="http://www.w3.org/2000/svg">
<path d="M1.22677 23.375C1.01587 23.375 0.836605 23.3012 0.688975 23.1536C0.541345 23.0059 0.46753 22.8267 0.46753 22.6158V2.02137C0.46753 1.78938 0.5308 1.59957 0.65734 1.45194C0.80497 1.30431 0.99478 1.2305 1.22677 1.2305H4.10556C4.33755 1.2305 4.51681 1.30431 4.64335 1.45194C4.79098 1.59957 4.8648 1.78938 4.8648 2.02137V10.1832H14.1971V2.02137C14.1971 1.78938 14.2604 1.59957 14.3869 1.45194C14.5346 1.30431 14.7244 1.2305 14.9564 1.2305H17.8035C18.0355 1.2305 18.2253 1.30431 18.3729 1.45194C18.5206 1.59957 18.5944 1.78938 18.5944 2.02137V22.6158C18.5944 22.8477 18.5206 23.0376 18.3729 23.1852C18.2253 23.3117 18.0355 23.375 17.8035 23.375H14.9564C14.7455 23.375 14.5662 23.3012 14.4186 23.1536C14.2709 23.0059 14.1971 22.8267 14.1971 22.6158V14.1376H4.8648V22.6158C4.8648 22.8267 4.79098 23.0059 4.64335 23.1536C4.51681 23.3012 4.33755 23.375 4.10556 23.375H1.22677ZM25.2734 23.375C25.0625 23.375 24.8832 23.3012 24.7356 23.1536C24.5879 23.0059 24.5141 22.8267 24.5141 22.6158V2.02137C24.5141 1.78938 24.5774 1.59957 24.7039 1.45194C24.8516 1.30431 25.0414 1.2305 25.2734 1.2305H39.1928C39.4248 1.2305 39.6146 1.30431 39.7622 1.45194C39.9098 1.59957 39.9836 1.78938 39.9836 2.02137V4.10928C39.9836 4.34127 39.9098 4.53108 39.7622 4.67871C39.6146 4.80525 39.4248 4.86852 39.1928 4.86852H28.7848V10.4679H38.4968C38.7288 10.4679 38.9186 10.5417 39.0662 10.6894C39.2139 10.8159 39.2877 10.9952 39.2877 11.2272V13.1885C39.2877 13.4205 39.2139 13.6103 39.0662 13.758C38.9186 13.8845 38.7288 13.9478 38.4968 13.9478H28.7848V19.737H39.4458C39.6778 19.737 39.8676 19.8108 40.0153 19.9584C40.1629 20.106 40.2367 20.2959 40.2367 20.5278V22.6158C40.2367 22.8477 40.1629 23.0376 40.0153 23.1852C39.8676 23.3117 39.6778 23.375 39.4458 23.375H25.2734ZM43.833 23.375C43.6643 23.375 43.5061 23.3117 43.3585 23.1852C43.2319 23.0586 43.1687 22.9005 43.1687 22.7107L43.2319 22.4259L50.856 2.02137C51.0036 1.49412 51.3727 1.2305 51.9632 1.2305H55.4114C55.9598 1.2305 56.3288 1.49412 56.5186 2.02137L64.1427 22.4259C64.1638 22.4892 64.1743 22.5841 64.1743 22.7107C64.1743 22.9005 64.111 23.0586 63.9845 23.1852C63.858 23.3117 63.7103 23.375 63.5416 23.375H60.7894C60.5152 23.375 60.3043 23.3117 60.1567 23.1852C60.009 23.0586 59.9141 22.9216 59.872 22.7739L58.3851 18.9145H48.9895L47.5027 22.7739C47.334 23.1746 47.0281 23.375 46.5853 23.375H43.833ZM57.2779 15.2764L53.6715 5.50122L50.0967 15.2764H57.2779ZM68.887 23.375C68.6761 23.375 68.4968 23.3012 68.3492 23.1536C68.2016 23.0059 68.1277 22.8267 68.1277 22.6158V1.98974C68.1277 1.75775 68.2016 1.57848 68.3492 1.45194C68.4968 1.30431 68.6761 1.2305 68.887 1.2305H71.829C72.061 1.2305 72.2403 1.30431 72.3668 1.45194C72.5145 1.57848 72.5883 1.75775 72.5883 1.98974V19.6104H82.6166C82.8486 19.6104 83.0384 19.6842 83.186 19.8319C83.3336 19.9795 83.4074 20.1693 83.4074 20.4013V22.6158C83.4074 22.8477 83.3336 23.0376 83.186 23.1852C83.0384 23.3117 82.8486 23.375 82.6166 23.375H68.887ZM89.5259 23.375C89.315 23.375 89.1357 23.3012 88.9881 23.1536C88.8405 23.0059 88.7667 22.8267 88.7667 22.6158V5.1216H82.9142C82.7033 5.1216 82.524 5.04779 82.3764 4.90016C82.2288 4.75253 82.1549 4.57326 82.1549 4.36236V2.02137C82.1549 1.78938 82.2182 1.59957 82.3447 1.45194C82.4924 1.30431 82.6822 1.2305 82.9142 1.2305H99.048C99.28 1.2305 99.4698 1.30431 99.6175 1.45194C99.7651 1.59957 99.8389 1.78938 99.8389 2.02137V4.36236C99.8389 4.57326 99.7651 4.75253 99.6175 4.90016C99.4698 5.04779 99.28 5.1216 99.048 5.1216H93.2272V22.6158C93.2272 22.8267 93.1534 23.0059 93.0057 23.1536C92.8581 23.3012 92.6683 23.375 92.4363 23.375H89.5259ZM112.189 23.6914C109.278 23.6914 107.022 22.9427 105.419 21.4453C103.837 19.9479 102.993 17.8389 102.888 15.1183C102.867 14.5488 102.856 13.6209 102.856 12.3344C102.856 11.0268 102.867 10.0778 102.888 9.48723C102.993 6.78771 103.848 4.68926 105.45 3.19187C107.074 1.67339 109.32 0.914149 112.189 0.914149C114.066 0.914149 115.7 1.24104 117.092 1.89483C118.484 2.52753 119.56 3.40277 120.319 4.52054C121.078 5.61722 121.479 6.86153 121.521 8.25347V8.31674C121.521 8.48546 121.447 8.63309 121.3 8.75963C121.173 8.86508 121.025 8.9178 120.857 8.9178H117.851C117.598 8.9178 117.408 8.86508 117.282 8.75963C117.155 8.65418 117.05 8.45382 116.966 8.15856C116.628 6.82989 116.069 5.90193 115.289 5.37468C114.509 4.82634 113.465 4.55217 112.157 4.55217C109.12 4.55217 107.538 6.24992 107.412 9.64541C107.391 10.2148 107.38 11.0901 107.38 12.2711C107.38 13.4522 107.391 14.3485 107.412 14.9601C107.538 18.3556 109.12 20.0533 112.157 20.0533C113.465 20.0533 114.509 19.7792 115.289 19.2308C116.09 18.6825 116.649 17.7545 116.966 16.4469C117.029 16.1517 117.124 15.9513 117.25 15.8459C117.398 15.7404 117.598 15.6877 117.851 15.6877H120.857C121.046 15.6877 121.205 15.751 121.331 15.8775C121.479 16.004 121.542 16.1622 121.521 16.352C121.479 17.744 121.078 18.9988 120.319 20.1166C119.56 21.2133 118.484 22.0885 117.092 22.7423C115.7 23.375 114.066 23.6914 112.189 23.6914ZM124.665 23.375C124.497 23.375 124.338 23.3117 124.191 23.1852C124.064 23.0586 124.001 22.9005 124.001 22.7107L124.064 22.4259L131.688 2.02137C131.836 1.49412 132.205 1.2305 132.795 1.2305H136.244C136.792 1.2305 137.161 1.49412 137.351 2.02137L144.975 22.4259C144.996 22.4892 145.007 22.5841 145.007 22.7107C145.007 22.9005 144.943 23.0586 144.817 23.1852C144.69 23.3117 144.543 23.375 144.374 23.375H141.622C141.347 23.375 141.137 23.3117 140.989 23.1852C140.841 23.0586 140.746 22.9216 140.704 22.7739L139.217 18.9145H129.822L128.335 22.7739C128.166 23.1746 127.86 23.375 127.418 23.375H124.665ZM138.11 15.2764L134.504 5.50122L130.929 15.2764H138.11ZM149.719 23.375C149.508 23.375 149.329 23.3012 149.181 23.1536C149.034 23.0059 148.96 22.8267 148.96 22.6158V2.02137C148.96 1.78938 149.023 1.59957 149.15 1.45194C149.297 1.30431 149.487 1.2305 149.719 1.2305H157.913C160.486 1.2305 162.5 1.83156 163.955 3.03369C165.431 4.23582 166.169 5.94411 166.169 8.15856C166.169 9.69813 165.79 10.9952 165.031 12.0497C164.292 13.0831 163.259 13.8318 161.93 14.2958L166.549 22.3627C166.612 22.4892 166.644 22.6052 166.644 22.7107C166.644 22.9005 166.57 23.0586 166.423 23.1852C166.296 23.3117 166.148 23.375 165.98 23.375H163.101C162.763 23.375 162.5 23.3012 162.31 23.1536C162.141 23.0059 161.983 22.795 161.835 22.5209L157.755 15.0234H153.357V22.6158C153.357 22.8267 153.283 23.0059 153.136 23.1536C153.009 23.3012 152.83 23.375 152.598 23.375H149.719ZM157.818 11.4486C159.083 11.4486 160.032 11.1639 160.665 10.5945C161.319 10.025 161.646 9.20252 161.646 8.12693C161.646 7.05134 161.319 6.21828 160.665 5.62776C160.032 5.03724 159.083 4.74198 157.818 4.74198H153.357V11.4486H157.818ZM172.005 23.375C171.794 23.375 171.615 23.3012 171.467 23.1536C171.319 23.0059 171.246 22.8267 171.246 22.6158V2.02137C171.246 1.78938 171.309 1.59957 171.435 1.45194C171.583 1.30431 171.773 1.2305 172.005 1.2305H185.924C186.156 1.2305 186.346 1.30431 186.494 1.45194C186.641 1.59957 186.715 1.78938 186.715 2.02137V4.10928C186.715 4.34127 186.641 4.53108 186.494 4.67871C186.346 4.80525 186.156 4.86852 185.924 4.86852H175.516V10.4679H185.228C185.46 10.4679 185.65 10.5417 185.798 10.6894C185.945 10.8159 186.019 10.9952 186.019 11.2272V13.1885C186.019 13.4205 185.945 13.6103 185.798 13.758C185.65 13.8845 185.46 13.9478 185.228 13.9478H175.516V19.737H186.177C186.409 19.737 186.599 19.8108 186.747 19.9584C186.894 20.106 186.968 20.2959 186.968 20.5278V22.6158C186.968 22.8477 186.894 23.0376 186.747 23.1852C186.599 23.3117 186.409 23.375 186.177 23.375H172.005Z" fill="white"/>
</svg>
