<svg width="180" height="23" viewBox="0 0 180 23" fill="none" xmlns="http://www.w3.org/2000/svg">
<path d="M17.9301 0.405763V22.3921H14.3237V12.775H3.97902V22.3921H0.372625V0.405763H3.97902V9.83299H14.3237V0.405763H17.9301ZM27.2842 3.31618V9.76972H34.8766V12.7118H27.2842V19.45H35.8256V22.3921H23.6778V0.374128H35.8256V3.31618H27.2842ZM54.5227 17.8999H45.3169L43.7351 22.3921H39.9706L47.8477 0.374128H52.0235L59.9006 22.3921H56.1044L54.5227 17.8999ZM53.5104 14.9579L49.9356 4.73976L46.3292 14.9579H53.5104ZM67.932 19.4817H75.3662V22.3921H64.3256V0.405763H67.932V19.4817ZM93.5863 0.405763V3.34782H87.7338V22.3921H84.1274V3.34782H78.2433V0.405763H93.5863ZM97.0365 11.3515C97.0365 9.20029 97.5321 7.27056 98.5234 5.56227C99.5357 3.85398 100.896 2.52531 102.604 1.57626C104.334 0.606118 106.221 0.121048 108.267 0.121048C110.608 0.121048 112.685 0.701023 114.499 1.86097C116.334 2.99983 117.663 4.62376 118.485 6.73276H114.151C113.582 5.57281 112.791 4.70812 111.778 4.13869C110.766 3.56926 109.596 3.28455 108.267 3.28455C106.812 3.28455 105.515 3.61144 104.376 4.26523C103.237 4.91902 102.341 5.85753 101.687 7.08075C101.054 8.30397 100.738 9.72754 100.738 11.3515C100.738 12.9754 101.054 14.399 101.687 15.6222C102.341 16.8454 103.237 17.7945 104.376 18.4693C105.515 19.1231 106.812 19.45 108.267 19.45C109.596 19.45 110.766 19.1653 111.778 18.5959C112.791 18.0265 113.582 17.1618 114.151 16.0018H118.485C117.663 18.1108 116.334 19.7347 114.499 20.8736C112.685 22.0125 110.608 22.5819 108.267 22.5819C106.2 22.5819 104.313 22.1074 102.604 21.1583C100.896 20.1882 99.5357 18.849 98.5234 17.1407C97.5321 15.4324 97.0365 13.5027 97.0365 11.3515ZM136.961 17.8999H127.756L126.174 22.3921H122.409L130.286 0.374128H134.462L142.339 22.3921H138.543L136.961 17.8999ZM135.949 14.9579L132.374 4.73976L128.768 14.9579H135.949ZM158.185 22.3921L153.123 13.5976H150.371V22.3921H146.764V0.405763H154.357C156.044 0.405763 157.468 0.701023 158.627 1.29154C159.809 1.88206 160.684 2.67294 161.253 3.66417C161.844 4.6554 162.139 5.76262 162.139 6.98584C162.139 8.41996 161.717 9.72754 160.874 10.9086C160.051 12.0685 158.775 12.8594 157.046 13.2812L162.487 22.3921H158.185ZM150.371 10.7188H154.357C155.707 10.7188 156.719 10.3813 157.394 9.70645C158.09 9.03157 158.438 8.1247 158.438 6.98584C158.438 5.84698 158.1 4.9612 157.425 4.3285C156.75 3.67471 155.728 3.34782 154.357 3.34782H150.371V10.7188ZM171.359 3.31618V9.76972H178.951V12.7118H171.359V19.45H179.9V22.3921H167.752V0.374128H179.9V3.31618H171.359Z" fill="#40A3F8"/>
</svg>
